<svg width="44" height="44" viewBox="0 0 44 44" fill="none" xmlns="http://www.w3.org/2000/svg">
<path fill-rule="evenodd" clip-rule="evenodd" d="M37.9863 14.499C37.9954 14.6649 38 14.8319 38 15.0001V35.0001C38 39.9706 33.9706 44.0001 29 44.0001H9C4.02944 44.0001 0 39.9706 0 35.0001V15.0001C0 10.0295 4.02944 6.00006 9 6.00006H29C29.1681 6.00006 29.3351 6.00467 29.5009 6.01377L23.5147 12.0001H9C7.34315 12.0001 6 13.3432 6 15.0001V35.0001C6 36.6569 7.34315 38.0001 9 38.0001H29C30.6569 38.0001 32 36.6569 32 35.0001V20.4853L37.9863 14.499Z" fill="black"/>
<path d="M18 26L42 2" stroke="black" stroke-width="4"/>
<path d="M42 12.5V2.01C42 2.00448 41.9955 2 41.99 2H32" stroke="black" stroke-width="4"/>
</svg>
