<svg width="40" height="38" viewBox="0 0 40 38" fill="none" xmlns="http://www.w3.org/2000/svg">
<path fill-rule="evenodd" clip-rule="evenodd" d="M19.7007 0.0161196C19.4394 0.00540811 19.1767 0 18.9127 0C8.4675 0 0 8.4675 0 18.9127C0 29.3579 8.4675 37.8254 18.9127 37.8254C29.3579 37.8254 37.8254 29.3579 37.8254 18.9127C37.8254 14.0688 36.0044 9.65024 33.0096 6.30423H30.7331V9.81941C32.6722 12.3363 33.8254 15.4898 33.8254 18.9127C33.8254 27.1488 27.1488 33.8254 18.9127 33.8254C10.6766 33.8254 4 27.1488 4 18.9127C4 10.6766 10.6766 4 18.9127 4C19.177 4 19.4398 4.00688 19.7007 4.02046V0.0161196Z" fill="black"/>
<path d="M29.157 13.0508L31.4653 5.51617L39 7.82449" stroke="black" stroke-width="4"/>
</svg>
